<?xml version="1.0" encoding="utf-8" ?>
<svg xmlns="http://www.w3.org/2000/svg" xmlns:xlink="http://www.w3.org/1999/xlink" width="1024" height="1024">
	<path fill="#2FBFCE" d="M0 0L1024 0L1024 1024L0 1024L0 0Z"/>
	<path fill="#FEFEFE" d="M882.394 334.259C887.289 333.699 904.225 330.215 908.343 331.98C907.459 336.742 906.165 341.326 905.074 346.033C918.21 346.288 932.975 351.053 945.079 355.852C947.939 356.986 950.724 358.919 953.501 359.868C950.3 359.97 938.774 354.664 934.549 353.495C924.95 350.84 915.053 349.546 905.416 347.108C903.831 348.155 903.901 349.097 903.36 350.877C900.763 348.324 861.863 343.649 856.345 343.404L854.955 340.985L853.605 339.571C861.63 337.335 873.561 336.111 882.394 334.259Z"/>
	<path fill="#B1CFCC" d="M854.955 340.985C871.707 341.566 888.436 345.574 905.132 346.991C905.234 347 905.321 347.069 905.416 347.108C903.831 348.155 903.901 349.097 903.36 350.877C900.763 348.324 861.863 343.649 856.345 343.404L854.955 340.985Z"/>
	<path fill="#395E7B" d="M783.028 162.337Q842.545 128.644 902.912 96.4999C901.751 152.065 904.188 207.746 903.061 263.315C900.92 256.156 888.1 234.928 887.864 232.135C888.453 214.889 887.944 197.462 887.903 180.199C887.874 168.054 888.584 155.341 887.588 143.267C887.361 140.517 887.019 137.683 885.62 135.254C883.356 131.323 879.559 129.957 875.438 128.828C862.409 132.649 842.846 146.221 830.379 153.544C821.178 158.949 811.637 163.835 802.586 169.481C802.271 169.463 801.954 169.47 801.641 169.428C799.681 169.167 783.837 163.267 783.028 162.337Z"/>
	<path fill="#F86455" d="M802.586 169.481C811.637 163.835 821.178 158.949 830.379 153.544C842.846 146.221 862.409 132.649 875.438 128.828C879.559 129.957 883.356 131.323 885.62 135.254C887.019 137.683 887.361 140.517 887.588 143.267C888.584 155.341 887.874 168.054 887.903 180.199C887.944 197.462 888.453 214.889 887.864 232.135C884.126 228.972 877.902 218.651 873.337 213.861C853.118 192.644 830.001 179.228 802.586 169.481Z"/>
	<path fill="#406987" d="M560.562 95.7541C571.95 100.658 582.652 107.126 593.551 113L652.405 144.884C662.116 150.184 678.937 157.431 686.994 163.503C680.08 165.068 673.307 166.824 666.549 168.981C629.309 182.255 601.115 203.691 577.431 235.075C571.036 245.446 565.535 255.577 561.122 266.986C558.758 262.503 560.462 115.612 560.562 95.7541Z"/>
	<path fill="#F86455" d="M577.431 235.075L577.48 173.933C577.45 164.038 576.833 153.915 577.365 144.042C577.476 141.991 577.627 139.856 578.489 137.964C580.065 134.509 583.238 131.658 586.85 130.492C589.314 129.697 592.059 129.619 594.517 130.472C601.425 132.869 608.603 137.82 615.083 141.333C632.142 150.579 649.135 160.437 666.549 168.981C629.309 182.255 601.115 203.691 577.431 235.075Z"/>
	<path fill="#B1CFCC" d="M406.246 759.44C407.844 750.169 417.251 729.65 424.031 722.577L424.864 722.734L424.208 723.316C429 728.313 477.944 745.007 486.768 746.796C480.796 780.099 483.963 815.948 492.32 848.585C494.241 856.09 496.176 863.902 499.463 870.935C509.71 870.844 519.399 872.241 526.998 879.817C531.108 883.915 534.719 890.824 534.819 896.74C534.846 898.329 534.596 899.845 533.409 901.003C531.602 902.766 479.104 902.329 471.621 901.915C467.3 899.318 464.23 896.256 461.416 892.091C454.962 882.538 449.353 869.073 444.555 858.484C434.902 837.181 426.104 815.915 418.15 793.912C414.721 784.424 410.95 774.674 408.48 764.898C408.054 763.212 407.701 761.527 407.225 759.851L406.246 759.44Z"/>
	<path fill="#406987" d="M714.329 160.004C728.573 158.723 743.631 158.59 757.896 159.731C763.683 160.194 778.494 164.481 783.028 162.337C783.837 163.267 799.681 169.167 801.641 169.428C801.954 169.47 802.271 169.463 802.586 169.481C830.001 179.228 853.118 192.644 873.337 213.861C877.902 218.651 884.126 228.972 887.864 232.135C888.1 234.928 900.92 256.156 903.061 263.315C904.363 269.774 906.409 276.049 907.248 282.598C879.096 286.964 849.308 282.822 822.339 274.418C815.1 270.653 807.469 267.652 799.493 265.912C786.933 259.86 775.346 253.329 764.53 244.449C739.598 223.978 717.548 192.742 714.329 160.004Z"/>
	<path fill="#B1CFCC" d="M805.306 611.418C806.025 617.203 804.556 623.875 804.063 629.748C802.69 646.115 801.341 662.394 799.651 678.737Q791.919 749.554 785.427 820.495C783.644 838.672 780.445 856.965 779.404 875.178C788.442 875.097 796.658 876.456 803.5 882.981C809.767 888.956 811.904 896.077 812.044 904.459L768.439 905.074C761.339 905.138 753.597 905.794 746.569 904.69C743.807 904.256 741.388 903.509 739.336 901.538C736.487 898.801 734.428 895.03 733.318 891.263C731.937 886.572 731.417 881.324 730.677 876.488Q728.397 861.314 726.522 846.085Q721.517 809.052 717.575 771.891C715.773 755.689 714.464 739.139 711.907 723.049Q721.123 716.999 729.793 710.191Q738.463 703.382 746.525 695.864C774.559 670.222 789.708 645.907 805.306 611.418Z"/>
	<path fill="#406987" d="M752.425 458.25C762.81 456.534 773.07 455.347 783.332 452.809C798.489 449.06 812.366 442.52 826.353 435.772C826.686 450.953 827.389 466.171 827.063 481.356C825.702 525.202 821.852 570.307 805.306 611.418C789.708 645.907 774.559 670.222 746.525 695.864Q738.463 703.382 729.793 710.191Q721.123 716.999 711.907 723.049C703.855 727.227 696.647 733.102 687.946 735.956C688.059 719.55 689.098 703.033 689.558 686.621C696.756 675.789 703.728 665.111 709.941 653.654C729.839 616.963 741.575 576.056 747.374 534.853C749.037 523.038 751.364 510.108 750.96 498.154L751.253 497.803C751.846 484.636 752.567 471.432 752.425 458.25Z"/>
	<path fill="#395E7B" d="M752.425 458.25C762.81 456.534 773.07 455.347 783.332 452.809C798.489 449.06 812.366 442.52 826.353 435.772C826.686 450.953 827.389 466.171 827.063 481.356C806.907 491.909 786.71 499.356 763.679 500.018C760.086 500.122 755.773 500.727 752.337 499.726C751.674 499.066 751.469 498.714 751.253 497.803C751.846 484.636 752.567 471.432 752.425 458.25Z"/>
	<path fill="#FEFEFE" d="M686.994 163.503C695.982 161.846 705.162 159.951 714.329 160.004C717.548 192.742 739.598 223.978 764.53 244.449C775.346 253.329 786.933 259.86 799.493 265.912C807.469 267.652 815.1 270.653 822.339 274.418C849.308 282.822 879.096 286.964 907.248 282.598C909.643 298.235 910.001 312.883 908.747 328.623C925.139 328.226 943.417 327.177 958.827 333.766C949.952 332.736 941.362 330.699 932.374 330.439C925.106 330.229 915.642 331.622 908.962 330.879L908.343 331.98C904.225 330.215 887.289 333.699 882.394 334.259C873.561 336.111 861.63 337.335 853.605 339.571L854.955 340.985L856.345 343.404C861.863 343.649 900.763 348.324 903.36 350.877C892.901 380.183 870.885 404.913 846.108 423.194C840.109 427.62 833.666 432.153 826.992 435.478C826.782 435.582 826.566 435.674 826.353 435.772C812.366 442.52 798.489 449.06 783.332 452.809C773.07 455.347 762.81 456.534 752.425 458.25C718.877 462.452 682.137 456.073 651.002 443.391C642.205 439.807 633.852 435.298 625.458 430.876C620.729 428.409 616.181 424.935 611.888 421.762C591.274 406.521 574.589 387.675 563.898 364.25C557.486 365.467 549.022 369.096 543.341 372.398C541.348 373.557 538.471 376.196 536.409 376.835C536.119 376.925 535.805 376.905 535.503 376.94L535.196 377.276L535.207 377.078C539.756 371.711 549.353 367.763 555.784 365.054C557.755 364.223 561.127 363.292 562.667 361.881C562.797 361.761 562.9 361.614 563.017 361.481C560.587 356.519 559.194 350.884 557.573 345.611C553.753 347.393 549.443 348.381 545.422 349.639C537.722 352.048 530.479 354.907 523.609 359.175C531.869 350.87 546.126 347.186 557.221 344.623C555.85 339.43 554.954 333.97 554.362 328.638C549.004 329.266 543.644 329.342 538.332 330.452C535.91 330.958 531.095 333.302 529.022 332.895C531.843 329.371 549.659 326.997 554.414 326.344C552.479 305.336 554.67 287.028 561.122 266.986C565.535 255.577 571.036 245.446 577.431 235.075C601.115 203.691 629.309 182.255 666.549 168.981C673.307 166.824 680.08 165.068 686.994 163.503Z"/>
	<path fill="#B1CFCC" d="M558.531 344.025C572.318 342.09 585.993 340.149 599.954 340.522L598.344 341.731C586.493 342.311 569.709 345.778 558.531 344.025Z"/>
	<path fill="#B1CFCC" d="M856.333 352.294C861.254 352.885 866.209 353.711 871.142 354.147C875.896 354.346 893.182 357.611 896.564 359.748C893.797 360.115 870.91 356.933 868.66 355.699C864.246 355.282 859.873 354.642 855.487 354.004L856.333 352.294Z"/>
	<path fill="#B1CFCC" d="M877.229 333.189C882.268 332.202 887.438 331.518 892.526 330.824C896.863 330.233 905.51 328.258 908.962 330.879L908.343 331.98C904.225 330.215 887.289 333.699 882.394 334.259C873.561 336.111 861.63 337.335 853.605 339.571L852.236 337.381C860.393 335.333 868.881 334.153 877.229 333.189Z"/>
	<defs>
		<linearGradient id="gradient_0" gradientUnits="userSpaceOnUse" x1="573.84601" y1="362.64212" x2="573.65265" y2="357.32156">
			<stop offset="0" stop-color="#EEF3F3"/>
			<stop offset="1" stop-color="#DCF8FC"/>
		</linearGradient>
	</defs>
	<path fill="url(#gradient_0)" d="M599.387 353.98L600.268 354.673C597.324 356.725 580.205 358.836 575.159 360.104Q569.305 361.569 563.898 364.25C557.486 365.467 549.022 369.096 543.341 372.398C541.348 373.557 538.471 376.196 536.409 376.835C536.119 376.925 535.805 376.905 535.503 376.94L535.196 377.276L535.207 377.078C539.756 371.711 549.353 367.763 555.784 365.054C557.755 364.223 561.127 363.292 562.667 361.881C562.797 361.761 562.9 361.614 563.017 361.481C570.476 357.296 590.375 354.966 599.387 353.98Z"/>
	<path fill="#B1CFCC" d="M727.541 346.373L731.592 346.57C731.526 351.75 731.427 357.396 734.699 361.752C740.536 369.523 749.679 372.734 758.769 368.641C761.816 367.269 766.022 363.27 769.334 363.706C769.906 364.9 769.844 365.172 769.718 366.509C769.171 367.41 768.683 368.184 767.809 368.802C761.402 373.324 751.503 374.747 743.984 373.284C737.778 372.077 732.905 365.584 729.525 360.523Q727.994 362.456 726.396 364.334C721.336 370.17 716.445 373.425 708.586 373.924C703.184 374.266 694.398 372.987 690.381 369.168C689.22 368.065 688.791 366.974 688.709 365.371L689.383 364.752C694.697 365.404 698.901 370.116 705.425 370.599C710.494 370.975 717.959 367.927 721.659 364.543C726.956 359.697 727.262 353.049 727.541 346.373Z"/>
	<path fill="#F86455" d="M727.541 346.373C722.151 341.979 711.933 332.049 711.349 324.977C711.187 323.027 711.699 321.241 713.012 319.77C715.699 316.759 720.237 315.852 724.09 315.81C726.56 315.782 729.029 316.018 731.499 315.997C736.692 315.952 742.299 314.82 746.402 319.024C747.821 320.478 748.361 322.265 748.28 324.271C747.964 332.148 738.223 340.906 732.515 345.798Q732.059 346.19 731.592 346.57L727.541 346.373Z"/>
	<path fill="#EDD9D7" d="M599.954 340.522C608.246 333.747 616.172 331.007 626.847 332.039C633.377 332.67 640.56 334.903 644.727 340.272C646.604 342.69 647.691 345.636 647.27 348.717C646.789 352.232 644.374 355.02 641.559 357.002C634.207 362.179 622.739 363.955 614.009 362.226C608.425 361.12 604.333 358.541 600.268 354.673L599.387 353.98C597.482 349.435 597.105 346.502 598.344 341.731L599.954 340.522Z"/>
	<path fill="#EDD9D7" d="M855.487 354.004C854.924 355.349 854.341 356.671 853.507 357.874C850.734 361.873 846.014 363.932 841.37 364.817C832.003 366.603 820.003 364.863 812.115 359.268C809.297 357.27 806.875 354.517 806.334 350.998C805.915 348.275 806.832 345.579 808.433 343.386C812.634 337.633 819.031 335.227 825.791 334.075C834.775 332.545 844.489 331.811 852.236 337.381L853.605 339.571L854.955 340.985L856.345 343.404C856.532 346.411 856.733 349.294 856.333 352.294L855.487 354.004Z"/>
	<path fill="#A15F20" d="M648.788 267.126C655.488 266.681 661.605 267.584 667.408 271.138C673.646 274.959 678.208 281.048 679.735 288.244C681.362 295.908 679.83 304.271 675.315 310.709C670.539 317.517 663.589 320.902 655.62 322.377C648.186 322.889 641.117 321.528 634.876 317.288Q634.341 316.921 633.826 316.528Q633.31 316.134 632.815 315.716Q632.32 315.297 631.847 314.854Q631.373 314.411 630.922 313.945Q630.471 313.479 630.045 312.991Q629.618 312.502 629.216 311.994Q628.814 311.485 628.438 310.956Q628.062 310.428 627.714 309.881Q627.365 309.335 627.044 308.771Q626.722 308.208 626.43 307.629Q626.138 307.05 625.875 306.458Q625.612 305.865 625.379 305.26Q625.146 304.655 624.943 304.039Q624.741 303.423 624.569 302.797Q624.398 302.172 624.259 301.539Q624.119 300.905 624.011 300.266Q623.887 299.583 623.798 298.894Q623.709 298.205 623.654 297.513Q623.6 296.82 623.581 296.126Q623.561 295.432 623.577 294.737Q623.593 294.043 623.644 293.35Q623.695 292.658 623.78 291.969Q623.866 291.279 623.986 290.595Q624.107 289.911 624.262 289.234Q624.417 288.557 624.605 287.889Q624.794 287.221 625.016 286.563Q625.239 285.905 625.494 285.259Q625.749 284.613 626.037 283.981Q626.324 283.348 626.643 282.732Q626.962 282.115 627.312 281.515Q627.662 280.915 628.042 280.333Q628.422 279.752 628.83 279.19C633.704 272.452 640.641 268.453 648.788 267.126Z"/>
	<path fill="#312517" d="M642.951 276.177L642.427 275.731C646.025 273.381 653.758 272.796 657.861 273.636Q658.35 273.735 658.834 273.859Q659.318 273.983 659.794 274.131Q660.271 274.279 660.74 274.451Q661.208 274.623 661.668 274.819Q662.127 275.014 662.576 275.233Q663.025 275.451 663.462 275.692Q663.899 275.933 664.324 276.196Q664.748 276.458 665.159 276.742Q665.569 277.026 665.965 277.33Q666.361 277.635 666.741 277.958Q667.121 278.282 667.484 278.625Q667.847 278.968 668.192 279.328Q668.537 279.689 668.864 280.066Q669.191 280.444 669.498 280.838Q669.805 281.231 670.091 281.64Q670.378 282.048 670.644 282.471C673.439 286.962 674.24 292.829 673.02 297.953Q672.889 298.489 672.733 299.019Q672.576 299.548 672.395 300.069Q672.213 300.59 672.006 301.102Q671.799 301.614 671.568 302.115Q671.337 302.616 671.082 303.106Q670.827 303.595 670.549 304.072Q670.27 304.548 669.969 305.011Q669.668 305.474 669.345 305.921Q669.022 306.369 668.678 306.8Q668.334 307.232 667.969 307.646Q667.605 308.061 667.221 308.457Q666.836 308.853 666.433 309.231Q666.031 309.608 665.61 309.965Q665.189 310.323 664.752 310.66Q664.315 310.996 663.862 311.312Q663.409 311.627 662.941 311.92Q662.484 312.198 662.013 312.452Q661.543 312.707 661.06 312.936Q660.576 313.166 660.082 313.371Q659.588 313.576 659.084 313.755Q658.58 313.934 658.067 314.087Q657.554 314.24 657.035 314.367Q656.515 314.493 655.989 314.593Q655.464 314.693 654.934 314.765Q654.404 314.838 653.871 314.883Q653.338 314.929 652.803 314.947Q652.268 314.965 651.733 314.955Q651.198 314.946 650.665 314.909Q650.131 314.872 649.6 314.808Q649.069 314.744 648.542 314.653Q648.015 314.561 647.493 314.443Q646.971 314.325 646.456 314.18C641.302 312.766 636.79 309.652 634.169 304.931C631.694 300.473 630.78 294.137 632.278 289.229C632.573 288.262 632.999 287.503 633.528 286.651C633.831 284.955 634.09 283.17 634.911 281.635C636.674 278.338 639.489 277.126 642.951 276.177Z"/>
	<path fill="#FEFEFE" d="M642.951 276.177C645.783 276.878 648.175 277.571 649.842 280.142C651.119 282.108 651.403 284.48 650.844 286.738C650.218 289.273 648.567 291.569 646.266 292.837C644.311 293.913 642.058 294.14 639.953 293.377C636.7 292.197 634.979 289.618 633.528 286.651C633.831 284.955 634.09 283.17 634.911 281.635C636.674 278.338 639.489 277.126 642.951 276.177Z"/>
	<path fill="#A15F20" d="M799.493 265.912C807.469 267.652 815.1 270.653 822.339 274.418C825.692 278.184 828.132 282.45 829.182 287.433C830.71 294.687 829.513 302.587 825.323 308.761C820.896 315.284 813.556 320.325 805.791 321.779C798.126 323.215 789.525 321.533 783.238 316.871C777.341 312.498 773.488 305.203 772.527 297.954C771.563 290.685 773.26 282.424 777.871 276.62C783.595 269.416 790.642 267.046 799.493 265.912Z"/>
	<path fill="#312517" d="M784.034 279.241C784.074 279.024 784.094 278.803 784.154 278.591C784.872 276.042 788.248 274.151 790.467 273.077C795.652 270.567 801.878 270.782 807.183 272.795C812.668 274.876 817.152 278.844 819.479 284.279Q819.712 284.831 819.917 285.393Q820.123 285.955 820.3 286.527Q820.477 287.099 820.625 287.68Q820.774 288.26 820.893 288.847Q821.012 289.433 821.102 290.025Q821.192 290.617 821.253 291.213Q821.313 291.809 821.343 292.407Q821.374 293.005 821.375 293.604Q821.375 294.202 821.346 294.801Q821.317 295.399 821.258 295.995Q821.2 296.59 821.111 297.183Q821.023 297.775 820.905 298.362Q820.787 298.949 820.64 299.53Q820.493 300.11 820.317 300.682Q820.142 301.255 819.938 301.818Q819.734 302.381 819.502 302.933C817.469 307.89 813.792 312.27 808.787 314.382C803.906 316.442 797.933 316.326 793.072 314.271C787.345 311.849 783.17 306.798 781.068 301.028C779.099 295.621 779.338 288.777 781.414 283.388L781.833 283.293L782.204 285.896C782.348 283.228 782.727 281.624 784.034 279.241Z"/>
	<path fill="#FEFEFE" d="M784.034 279.241C786.546 277.433 789.134 276.061 792.335 276.548C794.267 276.841 795.959 278.024 797.064 279.615Q797.344 280.027 797.582 280.464Q797.82 280.902 798.014 281.361Q798.208 281.82 798.355 282.296Q798.503 282.771 798.603 283.259Q798.703 283.747 798.754 284.243Q798.805 284.738 798.807 285.236Q798.81 285.734 798.763 286.23Q798.716 286.726 798.62 287.215C798.204 289.414 797.011 291.583 795.072 292.783C793.173 293.96 790.69 294.062 788.573 293.496C786.341 292.899 784.576 291.281 783.559 289.227C783.029 288.158 782.619 287.014 782.204 285.896C782.348 283.228 782.727 281.624 784.034 279.241Z"/>
	<path fill="#FEFEFE" d="M296.179 612.632C222.253 586.562 152.828 537.245 116.466 466.265C87.5633 409.846 76.6098 338.612 96.4678 277.497C108.74 239.727 133.478 204.612 169.578 186.413C197.038 172.57 228.071 168.408 257.646 178.453C274.897 184.311 294.081 197.858 302.158 214.626C305.271 221.088 306.379 228.072 303.83 234.966C302.135 239.548 298.778 242.771 294.307 244.654C283.425 249.236 269.615 246.646 259.194 242.019C252.755 239.16 246.733 235.385 240.218 232.697C239.912 232.786 239.608 232.88 239.301 232.965C236.433 233.757 233.037 233.601 230.047 233.925C226.853 234.27 223.659 235.02 220.533 235.749C197.029 241.235 178.882 256.255 166.701 276.81C147.532 309.156 148.301 352.147 157.523 387.663C173.933 450.86 215.377 501.596 271.423 534.259C285.028 542.187 300.034 547.872 314.912 552.901C324.441 534.161 336.04 518.574 351.384 504.235Q353.561 502.219 355.819 500.296Q358.078 498.372 360.415 496.545Q362.752 494.717 365.163 492.988Q367.574 491.26 370.055 489.633Q372.536 488.006 375.083 486.484Q377.629 484.962 380.237 483.548Q382.845 482.133 385.509 480.829Q388.174 479.524 390.89 478.331Q393.607 477.139 396.37 476.061Q399.134 474.982 401.941 474.02Q404.747 473.058 407.591 472.213Q410.435 471.369 413.312 470.644Q416.188 469.918 419.093 469.314Q421.997 468.709 424.924 468.226Q427.851 467.743 430.796 467.382Q433.741 467.021 436.698 466.783C450.137 465.578 464.031 466.083 477.527 466.15L525.864 466.06C540.348 466.033 560.546 467.921 574.171 463.938C586.624 460.299 596.657 452.092 606.928 444.532C611.841 440.915 616.946 437.412 621.495 433.339C622.721 432.394 624.125 431.66 625.458 430.876C633.852 435.298 642.205 439.807 651.002 443.391C682.137 456.073 718.877 462.452 752.425 458.25C752.567 471.432 751.846 484.636 751.253 497.803L750.96 498.154C751.364 510.108 749.037 523.038 747.374 534.853C741.575 576.056 729.839 616.963 709.941 653.654C703.728 665.111 696.756 675.789 689.558 686.621C689.098 703.033 688.059 719.55 687.946 735.956Q687.34 787.995 685.334 839.998C684.857 855.166 684.003 870.305 683.911 885.486C694.634 886.475 703.831 888.742 711.02 897.428C716.306 903.814 718.33 911.121 717.775 919.323Q698.1 919.608 678.424 919.348C671.42 919.304 663.235 920.078 656.394 918.603C653.695 918.021 651.76 916.612 649.797 914.726C645.611 910.704 642.392 905.262 639.943 900.048C627.118 872.75 619.329 833.929 613.495 804.176C610.676 789.798 607.536 774.919 606.091 760.342C565.139 765.149 526.123 757.351 486.768 746.796C477.944 745.007 429 728.313 424.208 723.316L424.864 722.734L424.031 722.577C417.251 729.65 407.844 750.169 406.246 759.44C398.653 792.242 408.844 854.448 417.985 886.788C425.065 887.87 431.995 889.04 437.957 893.298C443.525 897.274 447.93 903.141 448.905 910.042C449.274 912.654 449.054 915.032 447.484 917.195C443.361 919.684 395.726 919.568 388.911 918.966C384.689 918.593 381.483 916.327 378.918 913.05C374.676 907.629 371.844 900.701 368.794 894.566C363.208 883.33 357.901 872.349 353.075 860.771C329.122 803.311 309.559 743.6 299.869 681.95C296.227 658.777 293.633 636.051 296.179 612.632Z"/>
	<path fill="#395E7B" d="M486.768 746.796C477.944 745.007 429 728.313 424.208 723.316L424.864 722.734C435.544 725.809 445.902 729.815 456.651 732.738Q463.378 734.57 470.175 736.123Q476.972 737.676 483.827 738.948Q490.682 740.22 497.583 741.209Q504.485 742.198 511.421 742.902Q518.358 743.606 525.317 744.024Q532.277 744.442 539.248 744.574Q546.218 744.705 553.189 744.549Q560.159 744.393 567.117 743.951C579.074 743.091 590.628 740.826 602.489 739.55C603.541 746.515 604.942 753.398 606.091 760.342C565.139 765.149 526.123 757.351 486.768 746.796Z"/>
	<path fill="#B1CFCC" d="M625.458 430.876C633.852 435.298 642.205 439.807 651.002 443.391C682.137 456.073 718.877 462.452 752.425 458.25C752.567 471.432 751.846 484.636 751.253 497.803L750.96 498.154C750.008 498.311 750.341 498.292 749.251 498.292C744.447 498.29 739.47 497.179 734.778 496.21C707.511 490.578 679.819 477.869 656.72 462.414C645.212 454.714 631.288 443.114 621.495 433.339C622.721 432.394 624.125 431.66 625.458 430.876Z"/>
	<path fill="#F08A61" d="M304.25 578.734C291.518 574.902 279.472 568.921 267.717 562.787C207.903 531.572 155.744 474.35 135.384 409.395C121.47 365.004 118.437 312.426 140.798 270.21C151.1 250.761 167.903 234.025 189.296 227.555C205.903 222.533 224.916 224.549 240.218 232.697C239.912 232.786 239.608 232.88 239.301 232.965C236.433 233.757 233.037 233.601 230.047 233.925C226.853 234.27 223.659 235.02 220.533 235.749C197.029 241.235 178.882 256.255 166.701 276.81C147.532 309.156 148.301 352.147 157.523 387.663C173.933 450.86 215.377 501.596 271.423 534.259C285.028 542.187 300.034 547.872 314.912 552.901C310.448 561.098 307.284 569.935 304.25 578.734Z"/>
</svg>
