<?xml version="1.0" encoding="utf-8" ?>
<svg xmlns="http://www.w3.org/2000/svg" xmlns:xlink="http://www.w3.org/1999/xlink" width="1024" height="1024">
	<path fill="#FEFEFE" d="M853.942 339.68C859.543 337.961 865.765 337.294 871.547 336.319C883.744 334.263 895.987 331.773 908.385 331.592C907.39 336.314 906.622 341.248 905.213 345.858C921.753 347.778 939.277 351.872 953.941 360.028C946.333 358.765 938.927 354.644 931.464 352.553C922.676 350.092 913.521 349.324 904.738 346.99L903.31 350.866C892.341 346.681 868.496 344.251 856.35 343.44L855.567 341.037L853.942 339.68Z"/>
	<path fill="#B1CECC" d="M855.567 341.037C867.33 341.923 878.959 343.552 890.644 345.131C895.208 345.748 900.296 345.937 904.738 346.99L903.31 350.866C892.341 346.681 868.496 344.251 856.35 343.44L855.567 341.037Z"/>
	<path fill="#3E6785" d="M560.518 95.7664C569.857 99.5469 578.803 104.832 587.664 109.607L631.62 133.516Q647.056 141.938 662.635 150.093C670.733 154.351 679.127 158.381 686.648 163.619C679.783 165.033 673.137 167.562 666.326 168.927C628.909 183.215 602.16 203.259 577.474 234.725C571.505 244.987 565.842 255.031 561.403 266.068C560.388 259.787 560.438 253.213 560.273 246.857Q559.881 227.951 560.038 209.041L560.518 95.7664Z"/>
	<path fill="#F57A5E" d="M577.474 234.725C577.732 214.553 577.558 194.335 577.456 174.16C577.409 164.864 576.894 155.393 577.348 146.119C577.482 143.374 577.628 139.764 578.903 137.306Q579.233 136.683 579.625 136.097Q580.016 135.511 580.465 134.968Q580.913 134.424 581.414 133.929Q581.916 133.434 582.464 132.992Q583.013 132.55 583.604 132.165Q584.195 131.781 584.821 131.458Q585.448 131.135 586.103 130.878Q586.759 130.62 587.438 130.43C589.866 129.733 592.054 129.814 594.429 130.6C604.154 133.82 613.796 140.544 622.765 145.53Q644.328 157.634 666.326 168.927C628.909 183.215 602.16 203.259 577.474 234.725Z"/>
	<path fill="#B1CECC" d="M406.27 758.483C408.092 748.982 416.221 730.375 422.895 723.549C423.801 722.622 423.566 722.838 424.686 722.841C427.561 728.19 472.806 742.527 479.648 744.586C482.001 745.294 484.415 745.912 486.742 746.699Q486.135 750.598 485.652 754.514Q485.17 758.43 484.813 762.36Q484.457 766.29 484.226 770.229Q483.995 774.168 483.891 778.112Q483.787 782.057 483.808 786.002Q483.83 789.948 483.978 793.891Q484.126 797.834 484.401 801.771Q484.675 805.707 485.075 809.632Q485.475 813.558 486 817.468Q486.526 821.379 487.176 825.271Q487.827 829.163 488.601 833.032Q489.376 836.901 490.274 840.743Q491.172 844.585 492.193 848.397Q493.214 852.208 494.356 855.985Q495.498 859.762 496.76 863.5Q498.023 867.239 499.404 870.935C509.764 870.948 519.58 872.579 527.228 880.185C531.08 884.016 534.662 890.352 534.767 895.958C534.799 897.701 534.42 899.361 533.082 900.575C529.977 903.39 483.012 902.905 475.584 902.326C470.454 901.926 467.168 898.831 463.991 895.025C456.022 885.477 450.644 872.091 445.535 860.819Q426.692 819.499 411.976 776.536C409.912 770.562 408.283 764.465 406.27 758.483Z"/>
	<path fill="#B1CECC" d="M804.401 614.519C804.94 623.348 803.898 632.289 803.118 641.086L799.767 676.421Q792.09 748.834 785.25 821.332C783.57 838.709 779.593 857.949 779.376 875.108C789.073 875.443 797.964 876.9 804.84 884.546C810.302 890.619 810.855 896.877 812.167 904.444L770.967 905.033C762.965 905.129 754.034 905.957 746.183 904.426C743.191 903.842 740.884 902.874 738.734 900.67C736.068 897.937 734.324 894.43 733.294 890.784C730.032 879.253 728.948 863.508 727.312 851.251Q721.434 807.248 716.64 763.113C715.298 750.804 714.89 736.08 711.608 724.374C712.056 722.188 717.719 719.024 719.613 717.676C747.811 697.605 771.914 673.007 789.424 643.071C792.758 637.37 795.714 631.552 798.62 625.625C800.258 622.282 801.775 618.28 803.88 615.25C804.051 615.004 804.227 614.762 804.401 614.519Z"/>
	<path fill="#3E6785" d="M752.836 458.109C782.825 454.699 799.826 448.117 826.517 435.791C827.173 479.023 827.235 522.062 818.753 564.701Q815.739 579.249 811.305 593.43C809.378 599.406 804.957 608.64 804.401 614.519C804.227 614.762 804.051 615.004 803.88 615.25C801.775 618.28 800.258 622.282 798.62 625.625C795.714 631.552 792.758 637.37 789.424 643.071C771.914 673.007 747.811 697.605 719.613 717.676C717.719 719.024 712.056 722.188 711.608 724.374L711.146 723.71C703.219 727.365 696.158 732.711 687.948 735.778C688.275 719.383 689.093 703.008 689.595 686.618C696.164 676.236 703.186 666.268 709.02 655.426C734.196 608.638 748.698 551.81 751.199 498.882C752.687 494.266 752.742 464.826 752.836 458.109Z"/>
	<path fill="#3E6785" d="M783.581 162.106C794.261 155.629 805.409 149.816 816.317 143.724Q859.391 119.667 902.936 96.4726C901.926 120.223 902.527 144.232 902.827 168.007Q903.541 214.906 902.936 261.806C903.482 268.763 906.223 275.378 906.976 282.338C879.256 287.581 849.185 282.455 822.48 274.534C815.168 270.732 807.475 268.01 799.515 265.942C790.915 261.581 782.395 257.124 774.405 251.698C748.675 234.223 726.735 207.181 717.7 177.192C716.073 171.794 715.415 166.091 714.353 160.556C713.213 159.755 711.772 159.93 710.395 159.829C723 158.387 736.798 158.855 749.502 159.437C756.587 159.761 778.336 164.045 783.581 162.106Z"/>
	<path fill="#F57A5E" d="M875.54 128.668C879.907 130.302 883.62 131.568 885.825 136.051C891.04 146.648 886.227 214.235 888.084 232.181C882.628 226.578 878.705 219.556 873.339 213.781C851.731 190.522 831.122 180.996 802.677 169.334C812.429 163.86 822.257 158.459 831.814 152.652C846.119 143.959 859.86 134.784 875.54 128.668Z"/>
	<path fill="#FEFEFE" d="M710.395 159.829C711.772 159.93 713.213 159.755 714.353 160.556C715.415 166.091 716.073 171.794 717.7 177.192C726.735 207.181 748.675 234.223 774.405 251.698C782.395 257.124 790.915 261.581 799.515 265.942C807.475 268.01 815.168 270.732 822.48 274.534C849.185 282.455 879.256 287.581 906.976 282.338C908.959 297.767 909.579 312.948 908.521 328.474C925.561 328.378 943.281 326.951 959.297 333.89C951.249 332.977 943.345 331.047 935.251 330.587C928.046 330.177 920.917 331.15 913.735 331.057Q911.062 331.346 908.385 331.592C895.987 331.773 883.744 334.263 871.547 336.319C865.765 337.294 859.543 337.961 853.942 339.68L855.567 341.037L856.35 343.44C868.496 344.251 892.341 346.681 903.31 350.866C889.253 387.965 860.339 416.185 826.517 435.791C799.826 448.117 782.825 454.699 752.836 458.109C716.348 461.376 680.969 456.225 647.217 441.692C639.492 438.365 632.006 434.215 624.518 430.38C598.737 413.307 577.736 393.192 564.073 365.007L563.498 364.469C552.215 366.117 543.8 373.969 533.74 378.254C540.012 372.452 546.183 368.936 554.148 365.806C557.098 364.647 560.384 363.676 563.071 362C561.075 356.549 559.336 351.055 557.646 345.504C552.16 347.373 546.591 348.972 541.147 350.975C535.698 352.98 530.393 355.327 524.906 357.24C535.337 350.459 545.251 347.29 557.171 344.183C555.842 339.141 555.258 333.905 554.514 328.75C549.168 329.137 543.342 329.445 538.09 330.505C535.316 331.064 532.78 332.191 529.921 332.424C533.738 328.386 548.855 326.739 554.518 326.333C552.922 304.168 555.397 287.337 561.403 266.068C565.842 255.031 571.505 244.987 577.474 234.725C602.16 203.259 628.909 183.215 666.326 168.927C673.137 167.562 679.783 165.033 686.648 163.619C694.41 161.7 702.48 160.867 710.395 159.829Z"/>
	<path fill="#B1CECC" d="M561.445 343.848C573.41 341.577 586.961 340.042 599.155 340.689L597.129 341.735C587.521 342.706 570.505 345.891 561.445 343.848Z"/>
	<path fill="#B1CECC" d="M856.412 352.332C869.545 353.97 883.733 354.884 896.147 359.65C885.786 359.242 875.622 357.235 865.431 355.481C862.147 354.915 858.585 354.679 855.396 353.793L856.412 352.332Z"/>
	<defs>
		<linearGradient id="gradient_0" gradientUnits="userSpaceOnUse" x1="575.89142" y1="362.85782" x2="576.09351" y2="356.14172">
			<stop offset="0" stop-color="#EBEFF3"/>
			<stop offset="1" stop-color="#D8FAFF"/>
		</linearGradient>
	</defs>
	<path fill="url(#gradient_0)" d="M563.071 362C569.707 357.265 592.73 354.037 601.156 354.593C594.371 356.605 567.527 359.845 564.3 364.575C564.208 364.709 564.148 364.863 564.073 365.007L563.498 364.469C552.215 366.117 543.8 373.969 533.74 378.254C540.012 372.452 546.183 368.936 554.148 365.806C557.098 364.647 560.384 363.676 563.071 362Z"/>
	<path fill="#B1CECC" d="M852.342 337.492C862.055 334.822 899.707 328.328 908.296 330.379C909.931 330.77 911.375 330.93 913.046 331.023L913.735 331.057Q911.062 331.346 908.385 331.592C895.987 331.773 883.744 334.263 871.547 336.319C865.765 337.294 859.543 337.961 853.942 339.68L852.342 337.492Z"/>
	<path fill="#B1CECC" d="M727.535 346.206L731.558 346.571C731.349 350.567 731.441 355.329 733.156 359C735.314 363.617 740.061 368.087 744.943 369.647C753.026 372.229 758.523 368.176 765.411 364.948C766.963 364.221 767.831 363.87 769.469 364.441L769.785 365.511C769.288 367.301 768.557 368.224 767.048 369.241C761.51 372.971 751.573 374.709 744.989 373.369C737.749 371.894 733.39 366.371 729.614 360.521C726.069 364.693 722.103 369.856 716.838 371.853C709.975 374.455 700.217 374.843 693.525 371.549C691.415 370.51 689.78 369.019 689.133 366.707C688.799 365.511 688.736 366.011 689.309 365.026C692.871 364.586 699.985 369.856 705.009 370.371C710.615 370.945 716.66 368.766 720.829 365.022C726.411 360.008 727.279 353.262 727.535 346.206Z"/>
	<path fill="#F57A5E" d="M727.535 346.206C721.782 341.827 712.79 333.485 711.6 325.972C711.251 323.765 711.688 321.629 713.144 319.9C715.68 316.889 720.118 315.999 723.856 315.808C729.85 315.502 740.847 314.244 745.707 318.415C747.242 319.732 748.024 321.519 748.117 323.524C748.388 329.335 743.488 335.21 739.637 339.15C737.077 341.769 734.329 344.18 731.558 346.571L727.535 346.206Z"/>
	<path fill="#ECD9D7" d="M599.155 340.689C601.995 339.011 604.634 336.983 607.541 335.433C615.028 331.439 624.376 330.934 632.533 333.08C637.52 334.392 643.158 337.085 645.842 341.694C647.393 344.356 647.599 347.351 646.698 350.277C645.411 354.459 641.797 357.206 638.012 359.049C630.001 362.949 618.471 364.188 609.995 361.157C606.061 359.75 602.599 356.874 599.421 354.233C598.067 350.373 597.574 346.677 597.884 342.584C597.645 342.291 597.454 341.93 597.129 341.735L599.155 340.689Z"/>
	<path fill="#ECD9D7" d="M855.396 353.793C855.162 354.48 854.938 355.153 854.61 355.802C852.555 359.867 848.764 362.499 844.508 363.876C835.328 366.844 824.031 365.591 815.488 361.219C811.744 359.303 807.684 356.289 806.508 352.033C805.786 349.417 806.38 346.807 807.759 344.519C810.942 339.237 816.325 336.375 822.127 334.872C832.338 332.228 843.092 331.983 852.342 337.492L853.942 339.68L855.567 341.037L856.35 343.44C856.451 346.414 856.529 349.357 856.412 352.332L855.396 353.793Z"/>
	<path fill="#A36121" d="M649.852 267.157C655.394 266.686 661.484 267.959 666.354 270.62Q666.952 270.944 667.533 271.299Q668.113 271.654 668.675 272.038Q669.237 272.422 669.778 272.834Q670.319 273.246 670.839 273.686Q671.358 274.125 671.855 274.591Q672.351 275.056 672.823 275.546Q673.294 276.037 673.74 276.55Q674.186 277.064 674.605 277.6Q675.024 278.136 675.415 278.693Q675.806 279.25 676.168 279.826Q676.53 280.402 676.862 280.996Q677.194 281.59 677.495 282.2Q677.796 282.81 678.066 283.435Q678.335 284.06 678.572 284.697Q678.809 285.335 679.013 285.984Q679.217 286.633 679.388 287.292Q679.561 287.971 679.702 288.658Q679.842 289.344 679.949 290.037Q680.055 290.73 680.128 291.427Q680.201 292.124 680.24 292.824Q680.279 293.524 680.283 294.225Q680.288 294.925 680.259 295.626Q680.229 296.326 680.166 297.024Q680.102 297.722 680.005 298.416Q679.908 299.11 679.777 299.799Q679.646 300.487 679.481 301.169Q679.317 301.85 679.119 302.522Q678.922 303.195 678.692 303.857Q678.462 304.519 678.201 305.169Q677.939 305.819 677.646 306.456Q677.352 307.093 677.029 307.714Q676.705 308.336 676.351 308.941C671.663 316.946 664.124 320.375 655.552 322.508C647.802 322.623 640.715 321.316 634.323 316.7C628.571 312.548 624.97 306.305 623.929 299.312Q623.832 298.64 623.768 297.963Q623.704 297.287 623.673 296.608Q623.643 295.93 623.646 295.25Q623.649 294.571 623.686 293.892Q623.722 293.214 623.793 292.538Q623.863 291.862 623.966 291.191Q624.07 290.52 624.207 289.854Q624.343 289.189 624.513 288.531Q624.682 287.873 624.884 287.224Q625.085 286.575 625.319 285.937Q625.552 285.299 625.817 284.674Q626.082 284.048 626.378 283.436Q626.673 282.824 626.998 282.228Q627.324 281.632 627.678 281.052Q628.033 280.472 628.415 279.911Q628.798 279.35 629.208 278.808C634.27 272.057 641.607 268.28 649.852 267.157Z"/>
	<path fill="#322618" d="M643.064 276.092L643.518 275.178C648.622 272.642 654.602 272.644 659.982 274.451C665.043 276.151 669.276 279.707 671.603 284.539C674.162 289.851 673.899 295.895 671.846 301.326C669.817 306.692 665.822 310.894 660.518 313.103C655.095 315.362 649.002 315.452 643.597 313.104C638.678 310.968 634.676 307.119 632.821 302.04C631.341 297.988 630.875 292.228 632.746 288.211C633.051 287.557 633.131 287.498 633.513 287.005C633.545 285.43 634.081 283.497 634.785 282.089C636.512 278.636 639.637 277.325 643.064 276.092Z"/>
	<path fill="#FEFEFE" d="M643.064 276.092C646.204 277.157 648.867 278.123 650.341 281.324C651.32 283.45 651.257 285.872 650.363 288.014C649.374 290.382 647.386 292.402 644.945 293.254C642.807 294.001 640.615 293.789 638.622 292.731C636.353 291.527 634.715 289.217 633.513 287.005C633.545 285.43 634.081 283.497 634.785 282.089C636.512 278.636 639.637 277.325 643.064 276.092Z"/>
	<path fill="#A36121" d="M799.515 265.942C807.475 268.01 815.168 270.732 822.48 274.534C825.23 278.221 827.618 281.868 828.825 286.388C830.63 293.146 829.823 301.295 826.172 307.271C821.987 314.123 814.726 319.656 806.894 321.513C799.314 323.311 790.748 321.658 784.253 317.34C778.008 313.189 774.137 306.702 772.791 299.385C771.452 292.105 772.69 283.892 777.003 277.787C782.51 269.991 790.599 267.59 799.515 265.942Z"/>
	<path fill="#322618" d="M784.529 278.675C784.592 278.445 784.636 278.209 784.719 277.986C785.694 275.358 789.28 273.261 791.803 272.384C797.477 270.41 805.025 271.308 810.245 274.098C815.496 276.906 819.015 281.941 820.507 287.643C822.23 294.233 820.907 301.273 817.26 306.989C814.611 311.141 810.648 314.471 805.775 315.568C800.251 316.811 794.118 315.265 789.476 312.136Q789.03 311.834 788.6 311.51Q788.17 311.185 787.757 310.84Q787.344 310.495 786.948 310.13Q786.552 309.765 786.175 309.381Q785.798 308.996 785.441 308.594Q785.083 308.191 784.746 307.771Q784.409 307.351 784.094 306.915Q783.778 306.479 783.484 306.028Q783.19 305.577 782.919 305.111Q782.648 304.646 782.401 304.168Q782.154 303.69 781.93 303.2Q781.707 302.71 781.508 302.209Q781.309 301.709 781.135 301.199Q780.962 300.69 780.814 300.172Q780.665 299.654 780.543 299.13Q780.421 298.606 780.325 298.076C779.604 294.134 779.331 287.793 781.485 284.325C781.57 284.187 781.68 284.066 781.777 283.937L781.864 284.208C782.895 282.661 783.633 280.377 784.529 278.675Z"/>
	<path fill="#FEFEFE" d="M784.529 278.675C787.459 277.25 790.277 275.888 793.596 276.924C795.442 277.5 796.758 278.921 797.559 280.641C798.812 283.333 798.597 285.979 798.5 288.864C796.8 291.316 795.268 293.122 792.219 293.726C790.199 294.127 788.242 293.681 786.544 292.529C783.647 290.562 782.545 287.497 781.864 284.208C782.895 282.661 783.633 280.377 784.529 278.675Z"/>
	<path fill="#FEFEFE" d="M296.513 612.849C226.473 587.17 161.74 543.667 123.35 478.304C91.0043 423.233 76.7345 351.763 93.1477 289.284C103.474 249.975 126.346 211.376 162.307 190.616C188.98 175.217 221.3 168.677 251.375 176.964C270.306 182.181 290.502 194.16 300.37 211.744C303.938 218.103 306.333 226.319 304.178 233.499C302.746 238.271 299.516 242.022 295.079 244.255C284.482 249.587 270.5 246.605 260.132 242.164C253.592 239.363 247.478 235.69 240.736 233.351C214.641 235.146 194.583 242.472 176.965 262.597C155.45 287.174 149.437 320.823 151.725 352.528C155.999 411.757 187.521 467.653 232.036 506.11C259.258 529.627 281.413 540.684 314.817 552.82C319.534 544.725 324.037 536.733 329.553 529.134C354.513 494.753 390.091 471.883 432.795 467.181C450.081 465.278 467.638 466.307 484.981 466.366C498.293 466.411 511.605 465.917 524.92 466.017C541.416 466.14 559.717 468.666 575.649 463.522C591.748 458.325 608.497 443.901 621.507 433.187L624.518 430.38C632.006 434.215 639.492 438.365 647.217 441.692C680.969 456.225 716.348 461.376 752.836 458.109C752.742 464.826 752.687 494.266 751.199 498.882C748.698 551.81 734.196 608.638 709.02 655.426C703.186 666.268 696.164 676.236 689.595 686.618C689.093 703.008 688.275 719.383 687.948 735.778L686.363 804.804C685.516 831.842 684.107 858.927 683.65 885.97C693.172 886.039 702.156 888.608 708.99 895.515C716.018 902.619 716.862 909.95 718.077 919.399Q697.532 919.593 676.99 919.225C670.405 919.161 663.131 919.816 656.678 918.344C653.613 917.645 651.318 916.132 649.14 913.889C627.279 891.378 610.459 792.842 606.152 759.869C597.222 760.458 588.4 761.374 579.434 761.462C557.728 761.674 535.656 758.216 514.506 753.596C505.19 751.561 496.053 748.76 486.742 746.699C484.415 745.912 482.001 745.294 479.648 744.586C472.806 742.527 427.561 728.19 424.686 722.841C423.566 722.838 423.801 722.622 422.895 723.549C416.221 730.375 408.092 748.982 406.27 758.483C398.391 794.349 407.709 851.717 417.869 886.733C424.387 887.973 430.96 889.019 436.725 892.523C442.549 896.064 447.087 901.638 448.484 908.392C449.119 911.461 449.194 914.077 447.474 916.764C445.965 917.913 444.192 918.186 442.349 918.417C431.27 919.806 419.474 919.035 408.297 919.055C402.358 919.066 396.13 919.673 390.223 919.043C385.34 918.523 382.044 916.661 378.961 912.877C372.658 905.142 363.876 884.582 359.464 874.96C329.072 808.668 288.336 684.434 296.513 612.849Z"/>
	<path fill="#3E6785" d="M424.686 722.841C442.29 728.264 459.655 733.822 477.687 737.734Q485.366 739.32 493.112 740.541Q500.858 741.761 508.653 742.612Q516.448 743.463 524.274 743.943Q532.101 744.422 539.941 744.53Q547.782 744.638 555.619 744.374Q563.455 744.109 571.271 743.473Q579.086 742.837 586.863 741.83Q594.639 740.824 602.359 739.449C603.82 746.138 604.211 753.349 606.152 759.869C597.222 760.458 588.4 761.374 579.434 761.462C557.728 761.674 535.656 758.216 514.506 753.596C505.19 751.561 496.053 748.76 486.742 746.699C484.415 745.912 482.001 745.294 479.648 744.586C472.806 742.527 427.561 728.19 424.686 722.841Z"/>
	<path fill="#B1CECC" d="M624.518 430.38C632.006 434.215 639.492 438.365 647.217 441.692C680.969 456.225 716.348 461.376 752.836 458.109C752.742 464.826 752.687 494.266 751.199 498.882C748.145 497.503 742.341 497.673 738.874 497.031C732.476 495.847 725.965 494.285 719.732 492.422Q716.267 491.368 712.836 490.208Q709.405 489.048 706.012 487.782Q702.619 486.517 699.266 485.147Q695.914 483.776 692.605 482.303Q689.297 480.83 686.036 479.255Q682.774 477.681 679.563 476.006Q676.352 474.331 673.194 472.557Q670.037 470.784 666.935 468.914Q663.834 467.043 660.792 465.078Q657.75 463.113 654.77 461.054Q651.79 458.996 648.876 456.846Q645.961 454.696 643.114 452.458Q640.268 450.219 637.491 447.893Q634.715 445.567 632.013 443.157Q629.31 440.746 626.683 438.253Q624.056 435.76 621.507 433.187L624.518 430.38Z"/>
	<path fill="#F57A5E" d="M304.177 578.696C280.63 570.843 257.665 558.553 237.334 544.36C181.828 505.612 139.619 445.891 127.8 378.714C120.872 339.332 123.623 292.807 147.4 259.274C159.057 242.833 176.353 229.2 196.639 225.82C210.274 223.548 229.162 225.052 240.736 233.351C214.641 235.146 194.583 242.472 176.965 262.597C155.45 287.174 149.437 320.823 151.725 352.528C155.999 411.757 187.521 467.653 232.036 506.11C259.258 529.627 281.413 540.684 314.817 552.82C310.854 561.303 307.431 569.919 304.177 578.696Z"/>
</svg>
